<?xml version="1.0" encoding="UTF-8"?>
<svg width="24px" height="24px" viewBox="0 0 24 24" version="1.1" xmlns="http://www.w3.org/2000/svg" xmlns:xlink="http://www.w3.org/1999/xlink">
    <title>Combined Shape</title>
    <g id="阿里医院" stroke="none" stroke-width="1" fill="none" fill-rule="evenodd">
        <g id="医生主页-优惠信息" transform="translate(-30.000000, -738.000000)" fill="#AAAAAA" fill-rule="nonzero">
            <g id="clm-选项详述" transform="translate(0.000000, 696.000000)">
                <g id="title" transform="translate(30.000000, 36.000000)">
                    <path d="M23.729637,6.27036297 C24.090121,6.63084693 24.090121,7.21530691 23.729637,7.57579087 L13.305,18 L23.729637,28.4242091 C24.090121,28.7846931 24.090121,29.3691531 23.729637,29.729637 C23.3691531,30.090121 22.7846931,30.090121 22.4242091,29.729637 L12,19.305 L1.57579087,29.729637 C1.21530691,30.090121 0.630846933,30.090121 0.270362971,29.729637 C-0.0901209904,29.3691531 -0.0901209904,28.7846931 0.270362971,28.4242091 L10.695,18 L0.270362971,7.57579087 C-0.0901209904,7.21530691 -0.0901209904,6.63084693 0.270362971,6.27036297 C0.630846933,5.90987901 1.21530691,5.90987901 1.57579087,6.27036297 L12,16.695 L22.4242091,6.27036297 C22.7846931,5.90987901 23.3691531,5.90987901 23.729637,6.27036297 Z" id="Combined-Shape"></path>
                </g>
            </g>
        </g>
    </g>
</svg>